<svg width="97" height="107" viewBox="0 0 97 107" fill="none" xmlns="http://www.w3.org/2000/svg">
    <path d="M80.7866 42.506C82.5889 29.6703 74.4413 17.9468 70.8606 13.5065C70.6834 13.2711 70.4523 13.0817 70.1867 12.9541C69.9212 12.8265 69.6289 12.7646 69.3344 12.7734C69.0399 12.7822 68.7519 12.8616 68.4944 13.0048C68.237 13.1481 68.0177 13.351 67.8549 13.5966L66.6515 15.2962C65.9433 16.2819 64.9891 17.0648 63.884 17.5669C62.7789 18.0689 61.5615 18.2726 60.3532 18.1575L54.5614 17.5588C53.144 17.4051 51.7102 17.5657 50.3619 18.0293C49.0137 18.4929 47.7842 19.248 46.761 20.2408C46.0138 20.9694 45.0357 21.4144 43.9955 21.499L34.6271 22.3815C32.9947 22.5477 31.4881 23.333 30.4168 24.5758C29.3455 25.8186 28.791 27.4246 28.8673 29.0636C28.9026 29.9054 29.191 30.717 29.695 31.3922C30.199 32.0674 30.895 32.5748 31.692 32.848C33.3398 33.3386 35.33 34.0259 36.1988 34.297L37.8466 34.7876C41.3714 35.807 44.8221 37.0673 48.1743 38.5594C48.3098 38.6669 48.4786 38.7235 48.6515 38.7195L48.7372 38.7687C49.0809 38.9059 49.3776 39.1396 49.5916 39.4416C49.8056 39.7436 49.9277 40.1009 49.9434 40.4707C49.959 40.8405 49.8674 41.2069 49.6797 41.5259C49.4919 41.8448 49.216 42.1027 48.8851 42.2685C43.8445 44.7135 36.0986 48.6789 30.6312 52.7002C27.4987 54.9941 25.8496 58.2535 24.9346 60.2439C24.8368 60.4976 24.7625 60.7598 24.7126 61.0271C24.3595 62.5904 24.5231 64.226 25.179 65.6884C25.8348 67.1507 26.9474 68.3607 28.3497 69.1367L50.9864 82.1319C52.4422 82.9706 54.1376 83.2957 55.8004 83.0549C57.4631 82.8142 58.9967 82.0216 60.1549 80.8045L60.2532 80.6333C64.2514 75.8596 78.4565 58.4422 80.7866 42.506Z"
          fill="#FFE55E"/>
    <path d="M11.492 61.0766C14.0558 58.3403 17.1857 56.4491 20.3854 55.703C23.5851 54.957 26.6713 55.3989 29.1543 56.9586L59.2708 75.8854C61.7532 77.445 63.4897 80.0337 64.2044 83.2401C64.9191 86.4465 64.5709 90.0867 63.2152 93.5824C62.9072 94.3775 62.4528 95.1242 61.8867 95.7657C61.3205 96.4073 60.6576 96.9267 59.9483 97.2846C59.2389 97.6424 58.5018 97.8293 57.793 97.8309C57.0842 97.8325 56.4224 97.6488 55.858 97.2939L11.3389 69.3156C10.7743 68.961 10.3217 68.4443 10.0158 67.805C9.70979 67.1657 9.55844 66.4205 9.5732 65.6261C9.58796 64.8317 9.76845 64.0091 10.1009 63.2207C10.4334 62.4324 10.9092 61.6991 11.492 61.0766Z"
          fill="#F2B63D"/>
    <ellipse cx="41.0138" cy="71.4682" rx="26.8332" ry="9.5833" transform="rotate(32.1475 41.0138 71.4682)"
             fill="#F2B63D"/>
    <path d="M49.5212 70.6216C52.8112 72.5574 57.8326 77.1565 59.8541 81.4768" stroke="#FFE55E" stroke-width="3.23633"
          stroke-linecap="round"/>
    <path d="M59.9776 94.7684C59.6577 95.2775 58.9052 95.8359 57.2349 96.0612C55.5804 96.2844 53.3365 96.1258 50.6041 95.5092C45.1594 94.2805 38.2506 91.3428 31.2313 86.9314C24.212 82.5201 18.5683 77.5692 15.0997 73.1963C13.359 71.0017 12.2428 69.0486 11.7263 67.4611C11.2048 65.8584 11.3816 64.9381 11.7016 64.4291C12.0215 63.92 12.774 63.3616 14.4442 63.1363C16.0987 62.9131 18.3427 63.0717 21.0751 63.6883C26.5197 64.917 33.4285 67.8547 40.4479 72.2661C47.4672 76.6774 53.1108 81.6283 56.5794 86.0012C58.3202 88.1958 59.4363 90.1489 59.9529 91.7364C60.4743 93.3391 60.2975 94.2594 59.9776 94.7684Z"
          fill="#BF772F" stroke="#F2B63D" stroke-width="4.31511"/>
    <path d="M70.2799 26.0952C78.2737 37.9576 72.1189 52.4599 64.1269 62.4992" stroke="#FFFFCC" stroke-width="4.3151"
          stroke-linecap="round"/>
    <path d="M49.7363 21.0631L51.6457 19.9617C52.0446 19.7316 52.5278 19.7 52.9532 19.8762L56.5839 21.3798C58.1264 22.0186 57.5987 24.3241 55.9318 24.2283L50.4024 23.9104C49.6897 23.8694 49.1075 23.326 49.0175 22.6178L49.0067 22.5336C48.9315 21.9412 49.2191 21.3615 49.7363 21.0631Z"
          fill="#F2B63D"/>
</svg>
